<?xml version="1.0" encoding="utf-8"?>
<!-- Generator: Adobe Illustrator 24.3.0, SVG Export Plug-In . SVG Version: 6.00 Build 0)  -->
<svg version="1.1" id="Layer_1" xmlns="http://www.w3.org/2000/svg" xmlns:xlink="http://www.w3.org/1999/xlink" x="0px" y="0px"
	 viewBox="0 0 197.2 67.1" style="enable-background:new 0 0 197.2 67.1;" xml:space="preserve">
<style type="text/css">
	.st0{fill:#4BD294;}
</style>
<g>
	<path class="st0" d="M9,18.9l-1.8-0.5c0-0.2-0.1-0.5-0.1-0.7c0-2.8,2.4-3.9,4.4-3.9c3.3,0,4.4,1.3,4.4,3.7V24
		c0,1.2,0.4,1.5,1.1,1.5c0.4,0,0.7-0.1,1-0.2v1.2c-0.3,0.3-1.1,0.5-1.8,0.5c-1.1,0-1.7-0.6-2-1.2C14,25.5,14,25.2,13.9,25h-0.2
		c-0.4,0.8-1.7,2-3.9,2c-2.2,0-3.6-1.4-3.6-3.4c0-2.3,1.5-3,4-3.7c1.9-0.5,2.7-0.8,3.5-1.2v-1.2c0-1.6-0.7-2.2-2.4-2.2
		c-1.7,0-2.6,0.9-2.6,2.5C8.8,18.3,8.9,18.6,9,18.9z M10.4,25.5c1.5,0,3-1.2,3.5-2.4v-3c-0.4,0.2-1.5,0.6-2.9,1
		c-1.6,0.5-2.7,0.7-2.7,2.3C8.3,24.7,9,25.5,10.4,25.5z"/>
	<path class="st0" d="M32.1,19.1h-4.7v7.5h-2.2V8.4h7c4.2,0,6.1,2.1,6.1,5.3C38.2,16.9,36.3,19.1,32.1,19.1z M35.9,13.8
		c0-2.2-1-3.5-3.6-3.5h-4.9v7h4.8C34.9,17.3,35.9,16,35.9,13.8z"/>
	<path class="st0" d="M42.7,8.4v2.2h-2.1V8.4H42.7z M40.7,26.6V14.2h2v12.4H40.7z"/>
	<path class="st0" d="M45.5,20.4c0-3.9,2.2-6.5,5.8-6.5c3.1,0,4.7,2.1,5,4.6l-1.5,0.7c-0.3-2.2-1.3-3.8-3.5-3.8
		c-2.3,0-3.8,1.8-3.8,5c0,3.2,1.5,5,3.8,5c2.6,0,3.4-1.7,3.8-3.7l1.5,0.7c-0.5,2.4-2.4,4.5-5.3,4.5C47.9,27,45.5,24.3,45.5,20.4z"/>
	<path class="st0" d="M59.6,26.6V14.2h1.7v2.6h0.2c0.6-2,2.4-2.9,4-2.9c3,0,4,1.7,4,4v8.8h-2V18c0-1.7-0.8-2.6-2.6-2.6
		c-1.9,0-3.4,1.4-3.4,4.6v6.6H59.6z"/>
	<path class="st0" d="M75.2,8.4v2.2h-2.1V8.4H75.2z M73.2,26.6V14.2h2v12.4H73.2z"/>
	<path class="st0" d="M78,20.4c0-3.9,2.2-6.5,5.8-6.5c3.1,0,4.7,2.1,5,4.6l-1.5,0.7C87,17,86,15.4,83.9,15.4c-2.3,0-3.8,1.8-3.8,5
		c0,3.2,1.5,5,3.8,5c2.6,0,3.4-1.7,3.8-3.7l1.5,0.7c-0.5,2.4-2.4,4.5-5.3,4.5C80.4,27,78,24.3,78,20.4z"/>
	<path class="st0" d="M98.9,8.4v2.2h-2.1V8.4H98.9z M96.9,26.6V14.2h2v12.4H96.9z"/>
	<path class="st0" d="M111,17.6l-1.5,0.5c-0.3-1.7-1.1-2.8-3-2.8c-1.3,0-2.5,0.5-2.5,1.8c0,0.9,0.3,1.2,1.1,1.7
		c0.8,0.3,3.7,0.8,4.7,1.3c1.2,0.6,1.9,1.3,1.9,3.1c0,2.3-1.9,3.7-4.8,3.7c-3.5,0-5-2.3-5.1-4.4l1.5-0.4c0.2,2.1,1.1,3.4,3.6,3.4
		c1.8,0,3-0.6,3-2c0-0.9-0.2-1.2-0.8-1.6c-0.7-0.4-3.8-0.9-4.7-1.3c-1.3-0.6-2.1-1.4-2.1-3.3c0-2.1,1.9-3.4,4.4-3.4
		C109.4,13.9,110.8,15.6,111,17.6z"/>
	<path class="st0" d="M119.2,18.2c0.2-3.3,3.2-4.5,5.8-4.5c3.5,0,4.7,1.4,4.2,3.9l-1.4,6.4c-0.1,0.6,0,1.1,0.7,1.1
		c0.4,0,0.6,0,0.8-0.1l-0.3,1.4c-0.4,0.4-1.3,0.6-2.1,0.6c-1.1,0-1.7-0.6-2-1.4c-0.1-0.2-0.1-0.5-0.1-0.6h-0.2c-0.7,0.9-1.9,2-3.8,2
		c-2.3,0-3.3-1.3-3.3-3c0-2.6,2-3.5,4.9-4.1c2-0.5,3.4-0.8,3.5-1.5l0.1-0.7c0.3-1.4-0.2-2-1.7-2c-1.7,0-2.6,0.9-2.7,2.6L119.2,18.2z
		 M125,23l0.6-2.8c-0.3,0.2-1.4,0.6-2.7,1c-0.8,0.3-1.6,0.5-2,1c-0.3,0.3-0.4,0.7-0.4,1.4c0,1,0.5,1.5,1.4,1.5
		C123.2,25.1,124.7,24.2,125,23z"/>
	<path class="st0" d="M134.6,8.4h2.9l-3.9,18.2h-2.9L134.6,8.4z"/>
	<path class="st0" d="M137.9,14.1h2.7l0.6,8.9h0.2l4.6-8.9h2.1l0.6,8.9h0.2l4.6-8.9h2.7l-6.9,12.6h-2.4l-0.6-8.9H146l-4.6,8.9H139
		L137.9,14.1z"/>
	<path class="st0" d="M156.5,18.2c0.2-3.3,3.2-4.5,5.8-4.5c3.5,0,4.7,1.4,4.2,3.9l-1.4,6.4c-0.1,0.6,0,1.1,0.7,1.1
		c0.4,0,0.6,0,0.8-0.1l-0.3,1.4c-0.4,0.4-1.3,0.6-2.1,0.6c-1.1,0-1.7-0.6-2-1.4c-0.1-0.2-0.1-0.5-0.1-0.6H162c-0.7,0.9-1.9,2-3.8,2
		c-2.3,0-3.3-1.3-3.3-3c0-2.6,2-3.5,4.9-4.1c2-0.5,3.4-0.8,3.5-1.5l0.1-0.7c0.3-1.4-0.2-2-1.7-2c-1.7,0-2.6,0.9-2.7,2.6L156.5,18.2z
		 M162.3,23l0.6-2.8c-0.3,0.2-1.4,0.6-2.7,1c-0.8,0.3-1.6,0.5-2,1c-0.3,0.3-0.4,0.7-0.4,1.4c0,1,0.5,1.5,1.4,1.5
		C160.5,25.1,162.1,24.2,162.3,23z"/>
	<path class="st0" d="M168,30.3c0.7,0,1.1-0.5,1.8-1.5c0.2-0.3,1.3-2.1,1.3-2.3L169,14.1h3.2l1.1,9h0.2l4.9-9h2.7L173,28.2
		c-1.6,2.8-2.8,3.9-5.2,3.9c-1.8,0-2.7-0.8-2.7-2.4c0-0.7,0.5-1.5,1-1.8h1.9c-0.4,0.4-0.8,1-0.8,1.6C167.2,30.1,167.5,30.3,168,30.3
		z"/>
	<path class="st0" d="M188.7,17.9c0-0.3-0.1-0.6-0.2-0.9c-0.3-0.8-1-1.4-2.2-1.4c-1.1,0-1.9,0.4-1.9,1.5c0,0.9,0.4,1.3,2.1,2.1
		c2.1,1,3.5,1.8,3.5,3.9c0,2.3-1.8,4-5,4c-3,0-4.5-1.4-4.9-3c-0.1-0.4-0.2-0.9-0.1-1.2l2-0.8c-0.1,0.4,0,0.7,0,1
		c0.2,1.2,1.1,2.2,3,2.2c1.4,0,2.3-0.6,2.3-1.7c0-0.9-0.7-1.4-2.4-2.2c-1.9-0.9-3-2-3-3.8c0-2.5,2-3.8,4.7-3.8c2.3,0,3.6,1.2,4,2.6
		c0.1,0.3,0.1,0.7,0.2,1L188.7,17.9z"/>
	<path class="st0" d="M42.2,44.4l-1.8-0.5c0-0.2-0.1-0.5-0.1-0.7c0-2.8,2.4-3.9,4.4-3.9c3.3,0,4.4,1.3,4.4,3.7v6.3
		c0,1.2,0.4,1.5,1.1,1.5c0.4,0,0.7-0.1,1-0.2v1.2c-0.3,0.3-1.1,0.5-1.8,0.5c-1.1,0-1.7-0.6-2-1.2c-0.1-0.3-0.1-0.5-0.2-0.8H47
		c-0.4,0.8-1.7,2-3.9,2c-2.2,0-3.6-1.4-3.6-3.4c0-2.3,1.5-3,4-3.7c1.9-0.5,2.7-0.8,3.5-1.2V43c0-1.6-0.7-2.2-2.4-2.2
		c-1.7,0-2.6,0.9-2.6,2.5C42.1,43.7,42.1,44,42.2,44.4z M43.6,51c1.5,0,3-1.2,3.5-2.4v-3c-0.4,0.2-1.5,0.6-2.9,1
		c-1.6,0.5-2.7,0.7-2.7,2.3C41.5,50.1,42.2,51,43.6,51z"/>
	<path class="st0" d="M57.3,49.9c0-1.3,1.2-2.1,2.5-2.2v-0.1c-1.2-0.7-2-1.9-2-3.7c0-3,2.3-4.6,4.8-4.6c1.3,0,2.6,0.5,3.4,1.4H66
		l1-2.7l1.7,0.4l-2,3c0.5,0.7,0.8,1.6,0.8,2.6c0,3-2.3,4.6-4.9,4.6h-0.1c-0.8,0-1.2-0.2-1.9-0.2c-1,0-1.6,0.3-1.6,1
		c0,0.5,0.2,0.8,1.5,1c0.5,0.1,1.3,0.1,2.2,0.1c4.6,0,6,1,6,3.4c0,2.1-2,3.7-6.1,3.7c-4.1,0-6-1.2-6-3.3c0-1.3,1.4-2.1,2.6-2.2v-0.2
		C58.2,51.8,57.3,51,57.3,49.9z M58.3,54.3c0,1.4,1.6,1.9,4.2,1.9c3.1,0,4.2-0.8,4.2-2.3c0-1.2-1.1-1.8-4.2-1.8
		C59.8,52.2,58.3,52.8,58.3,54.3z M62.6,40.7c-1.8,0-3,1.1-3,3.2c0,2.2,1.1,3.3,3,3.3c1.9,0,3-1.1,3-3.3
		C65.5,41.8,64.4,40.7,62.6,40.7z"/>
	<path class="st0" d="M69.7,45.9c0-3.9,2.4-6.5,6.1-6.5c3.6,0,6.1,2.6,6.1,6.5s-2.4,6.5-6.1,6.5C72.1,52.4,69.7,49.8,69.7,45.9z
		 M71.7,45.9c0,3.2,1.5,5.1,4,5.1c2.6,0,4-1.9,4-5.1s-1.5-5.1-4-5.1S71.7,42.7,71.7,45.9z"/>
	<path class="st0" d="M83.7,45.9c0-3.9,2.4-6.5,6.1-6.5c3.6,0,6.1,2.6,6.1,6.5s-2.4,6.5-6.1,6.5C86.2,52.4,83.7,49.8,83.7,45.9z
		 M85.8,45.9c0,3.2,1.5,5.1,4,5.1c2.6,0,4-1.9,4-5.1s-1.5-5.1-4-5.1C87.2,40.8,85.8,42.7,85.8,45.9z"/>
	<path class="st0" d="M107.4,52.1v-2.1h-0.2c-0.7,1.5-2.1,2.5-4,2.5c-2.6,0-5.4-1.8-5.4-6.5c0-4.7,2.8-6.5,5.5-6.5
		c2,0,3.4,0.9,4.1,2.5h0.2v-8h1.9v18.2H107.4z M107.3,45.9c0-3.7-2-5.1-3.8-5.1c-2.5,0-3.7,2.1-3.7,5.1s1.3,5.1,3.7,5.1
		C105.9,50.9,107.3,49.1,107.3,45.9z"/>
	<path class="st0" d="M120,33.9v2.2H118v-2.2H120z M118,52.1V39.7h2v12.4H118z"/>
	<path class="st0" d="M132.4,52.1v-2.1h-0.2c-0.7,1.5-2.1,2.5-4,2.5c-2.6,0-5.4-1.8-5.4-6.5c0-4.7,2.8-6.5,5.5-6.5
		c2,0,3.4,0.9,4.1,2.5h0.2v-8h1.9v18.2H132.4z M132.4,45.9c0-3.7-2-5.1-3.8-5.1c-2.5,0-3.7,2.1-3.7,5.1s1.3,5.1,3.7,5.1
		C130.9,50.9,132.4,49.1,132.4,45.9z"/>
	<path class="st0" d="M143.3,50.9c2.6,0,3.7-1.4,4.2-3.4l1.6,0.7c-0.6,2.4-2.3,4.2-5.8,4.3c-3.5,0-5.8-2.6-5.8-6.5s2.3-6.5,5.8-6.5
		c3.5,0,5.6,2.5,5.7,6.9h-9.4C139.6,49.2,141.1,50.9,143.3,50.9z M143.2,40.8c-1.9,0-3.3,1.4-3.6,4h7.1
		C146.5,42.4,145.6,40.8,143.2,40.8z"/>
	<path class="st0" d="M153.7,44.4l-1.8-0.5c0-0.2-0.1-0.5-0.1-0.7c0-2.8,2.4-3.9,4.4-3.9c3.3,0,4.4,1.3,4.4,3.7v6.3
		c0,1.2,0.4,1.5,1.1,1.5c0.4,0,0.7-0.1,1-0.2v1.2c-0.3,0.3-1.1,0.5-1.8,0.5c-1.1,0-1.7-0.6-2-1.2c-0.1-0.3-0.1-0.5-0.2-0.8h-0.2
		c-0.4,0.8-1.7,2-3.9,2c-2.2,0-3.6-1.4-3.6-3.4c0-2.3,1.5-3,4-3.7c1.9-0.5,2.7-0.8,3.5-1.2V43c0-1.6-0.7-2.2-2.4-2.2
		c-1.7,0-2.6,0.9-2.6,2.5C153.5,43.7,153.6,44,153.7,44.4z M155.1,51c1.5,0,3-1.2,3.5-2.4v-3c-0.4,0.2-1.5,0.6-2.9,1
		c-1.6,0.5-2.7,0.7-2.7,2.3C153,50.1,153.6,51,155.1,51z"/>
</g>
<g>
	<rect x="117.8" y="29.9" class="st0" width="72.7" height="0.7"/>
</g>
</svg>
