<?xml version="1.0" encoding="utf-8"?>
<!-- Generator: Adobe Illustrator 24.3.0, SVG Export Plug-In . SVG Version: 6.00 Build 0)  -->
<svg version="1.1" id="Layer_1" xmlns="http://www.w3.org/2000/svg" xmlns:xlink="http://www.w3.org/1999/xlink" x="0px" y="0px"
	 viewBox="0 0 139.9 64.1" style="enable-background:new 0 0 139.9 64.1;" xml:space="preserve">
<style type="text/css">
	.st0{fill:#94E2CC;}
</style>
<g>
	<path class="st0" d="M55.4,55.4c-6.7,0-12.2-5.5-12.2-12.2c0-6.7,5.5-12.2,12.2-12.2c6.7,0,12.2,5.5,12.2,12.2
		C67.5,50,62.1,55.4,55.4,55.4z M55.4,31.6c-6.4,0-11.6,5.2-11.6,11.6s5.2,11.6,11.6,11.6S67,49.7,67,43.3S61.8,31.6,55.4,31.6z"/>
</g>
<g>
	<rect x="11.7" y="26.8" class="st0" width="68.1" height="0.5"/>
</g>
<g>
	<path class="st0" d="M21.4,24H19l0.5-2.2h-0.2c-1.1,1.8-2.6,2.5-4,2.5c-2.8,0-3.7-1.8-3.3-4l1.7-8.1h2.7l-1.7,7.9
		c-0.3,1.5,0.2,2.2,1.6,2.2c1.7,0,2.9-1,3.5-3.7l1.4-6.4h2.7L21.4,24z"/>
	<path class="st0" d="M27,12.2h2.4l-0.5,2.4H29c1-1.8,2.7-2.7,4.3-2.7c2.9,0,3.5,1.7,3,3.9L34.6,24h-2.7l1.7-8
		c0.3-1.4-0.1-2.1-1.5-2.1c-1.5,0-3,1.1-3.6,3.8L27.2,24h-2.7L27,12.2z"/>
	<path class="st0" d="M41.2,6.9H44l-3.6,17h-2.7L41.2,6.9z"/>
	<path class="st0" d="M43.8,19.1c0-3.9,2.5-7.2,6.5-7.2c3,0,5,1.8,5,5.2c0,3.9-2.4,7.2-6.5,7.2C45.8,24.3,43.8,22.4,43.8,19.1z
		 M51.7,20.8c0.6-1,0.9-2.5,0.9-3.9c0-2.1-0.9-3.1-2.4-3.1c-1.2,0-2.1,0.6-2.6,1.6c-0.6,1-1,2.5-1,4c0,2.1,0.9,3.1,2.4,3.1
		C50.3,22.4,51.1,21.8,51.7,20.8z"/>
	<path class="st0" d="M63.5,11.9c3.2,0,4.3,2,4.3,4.5l-2.3,0.6c0-0.5,0-1,0-1.4c-0.2-1-0.7-1.7-2-1.7c-1.5,0-2.8,1-3.4,2.8
		c-0.3,0.9-0.5,1.9-0.5,3c0,1.7,0.7,2.8,2.2,2.8c1.9,0,2.8-1.1,3.5-3.1l2.1,0.7c-0.9,2.5-2.9,4.2-5.9,4.2c-3.1,0-4.7-2-4.7-4.8
		C56.8,14.6,59.7,11.9,63.5,11.9z"/>
	<path class="st0" d="M72.7,17.9h0.2l5.8-5.6h2.6L76,17.1l3.5,6.8h-3L74,19.1l-2,1.8L71.4,24h-2.7l3.6-17H75L72.7,17.9z"/>
	<path class="st0" d="M87.8,21.6v-7.8h-2v-1.4h2V7.9h1.9v4.5h3.5v1.4h-3.5v7.8c0,1,0.5,1.3,1.3,1.3c1.3,0,1.5-0.7,1.5-1.7
		c0-0.5-0.1-0.8-0.1-1.1l1.3,0.2c0.1,0.2,0.3,0.9,0.3,1.3c0,1.6-0.9,2.7-3,2.7C89.1,24.3,87.8,23.5,87.8,21.6z"/>
	<path class="st0" d="M96.2,24v-17h1.7v7.8h0.2c0.6-1.9,2.1-2.6,3.7-2.6c2.8,0,3.7,1.5,3.7,3.7V24h-1.9v-8.1c0-1.6-0.8-2.4-2.4-2.4
		c-1.8,0-3.1,1.3-3.1,4.3V24H96.2z"/>
	<path class="st0" d="M113.6,22.9c2.4,0,3.5-1.3,3.9-3.2l1.5,0.6c-0.6,2.3-2.2,4-5.4,4c-3.2,0-5.4-2.5-5.4-6.1
		c0-3.7,2.2-6.1,5.4-6.1c3.2,0,5.3,2.3,5.3,6.4h-8.8C110.2,21.3,111.6,22.9,113.6,22.9z M113.6,13.5c-1.8,0-3.1,1.3-3.4,3.7h6.6
		C116.6,14.9,115.8,13.5,113.6,13.5z"/>
	<path class="st0" d="M7.2,45.1c0-3.7,2.3-6.1,5.7-6.1c3.4,0,5.7,2.5,5.7,6.1c0,3.7-2.3,6.1-5.7,6.1C9.5,51.2,7.2,48.7,7.2,45.1z
		 M9.1,45.1c0,3,1.4,4.8,3.8,4.8c2.4,0,3.8-1.8,3.8-4.8c0-3-1.4-4.8-3.8-4.8S9.1,42.1,9.1,45.1z"/>
	<path class="st0" d="M30.4,39.3v11.6h-1.6v-2.2h-0.2c-0.6,1.8-2.3,2.6-3.6,2.6c-2.8,0-3.9-1.7-3.9-3.8v-8.1H23v8
		c0,1.7,0.9,2.5,2.4,2.5c1.8,0,3.1-1.1,3.1-4.2v-6.3H30.4z"/>
	<path class="st0" d="M34.8,48.5v-7.8h-2v-1.4h2v-4.5h1.9v4.5h3.5v1.4h-3.5v7.8c0,1,0.5,1.3,1.3,1.3c1.3,0,1.5-0.7,1.5-1.7
		c0-0.5-0.1-0.8-0.1-1.1l1.3,0.2c0.1,0.2,0.3,0.9,0.3,1.3c0,1.6-0.9,2.7-3,2.7C36.1,51.2,34.8,50.4,34.8,48.5z"/>
	<path class="st0" d="M59.4,51.2c-2.1,0-3.2-1-3.8-1.9c-1,1-2.4,1.9-4.5,1.9c-3,0-4.7-1.7-4.7-4.5c0-4,3.1-5.3,6.6-6.4V40
		c0-4,2.2-6.5,5-6.5c2.2,0,3.2,1,3.2,2.9c0,2.7-2.6,3.8-5.5,4.8c0.1,1.6,0.4,2.9,1,4.2c2-2.3,3.6-4,5.9-4.6l-0.4,2.1
		c-1.7,0.5-3,2.1-4.7,4.2c0.4,0.9,1,2,2.3,2c1.4,0,2.1-0.7,2.1-1.9c0-0.3,0-0.6,0-0.9l1.5,0.1c0,0.3,0,0.5,0,0.9
		C63.5,49.5,62.2,51.2,59.4,51.2z M51.7,49.1c1.3,0,2.2-0.5,3.1-1.3c-0.7-1.4-1.3-3.3-1.6-5.7c-2.4,0.8-4.1,1.7-4.1,4.3
		C49.1,48,50,49.1,51.7,49.1z M55.8,39.5c2-0.6,3.5-1.2,3.5-2.8c0-0.9-0.4-1.2-1.1-1.2C56.9,35.5,55.8,36.7,55.8,39.5z"/>
	<path class="st0" d="M72,43.7l-1.7-0.4c0-0.2-0.1-0.5-0.1-0.7c0-2.6,2.3-3.6,4.1-3.6c3.1,0,4.1,1.3,4.1,3.5v5.9
		c0,1.1,0.3,1.4,1,1.4c0.4,0,0.7-0.1,0.9-0.2v1.1c-0.2,0.3-1.1,0.4-1.7,0.4c-1.1,0-1.6-0.5-1.9-1.2c-0.1-0.2-0.1-0.5-0.2-0.7h-0.2
		c-0.4,0.8-1.5,1.9-3.6,1.9c-2.1,0-3.4-1.3-3.4-3.1c0-2.2,1.4-2.8,3.8-3.4c1.7-0.5,2.6-0.7,3.3-1.1v-1.1c0-1.5-0.7-2-2.3-2
		c-1.6,0-2.4,0.9-2.4,2.4C71.9,43,71.9,43.3,72,43.7z M73.3,49.8c1.4,0,2.8-1.1,3.3-2.2v-2.8c-0.4,0.2-1.4,0.6-2.7,1
		c-1.5,0.5-2.5,0.7-2.5,2.2C71.4,49.1,72,49.8,73.3,49.8z"/>
	<path class="st0" d="M83.6,50.9h-1.2v-17h1.8v7.5h0.2c0.7-1.6,2.2-2.4,3.9-2.4c2.6,0,5,1.7,5,6.1c0,4.4-2.8,6.1-5.2,6.1
		c-1.7,0-3.2-0.9-3.9-2.4H84L83.6,50.9z M84.3,45.1c0,3.1,1.5,4.8,3.7,4.8c2.3,0,3.5-2,3.5-4.8s-1.3-4.8-3.6-4.8
		C86.1,40.3,84.3,41.6,84.3,45.1z"/>
	<path class="st0" d="M95.1,45.1c0-3.7,2.3-6.1,5.7-6.1c3.4,0,5.7,2.5,5.7,6.1c0,3.7-2.3,6.1-5.7,6.1C97.4,51.2,95.1,48.7,95.1,45.1
		z M97,45.1c0,3,1.4,4.8,3.8,4.8c2.4,0,3.8-1.8,3.8-4.8c0-3-1.4-4.8-3.8-4.8S97,42.1,97,45.1z"/>
	<path class="st0" d="M118.3,39.3v11.6h-1.6v-2.2h-0.2c-0.6,1.8-2.3,2.6-3.6,2.6c-2.8,0-3.9-1.7-3.9-3.8v-8.1h1.9v8
		c0,1.7,0.9,2.5,2.4,2.5c1.8,0,3.1-1.1,3.1-4.2v-6.3H118.3z"/>
	<path class="st0" d="M122.7,48.5v-7.8h-2v-1.4h2v-4.5h1.9v4.5h3.5v1.4h-3.5v7.8c0,1,0.5,1.3,1.3,1.3c1.3,0,1.5-0.7,1.5-1.7
		c0-0.5-0.1-0.8-0.1-1.1l1.3,0.2c0.1,0.2,0.3,0.9,0.3,1.3c0,1.6-0.9,2.7-3,2.7C124,51.2,122.7,50.4,122.7,48.5z"/>
</g>
</svg>
