<svg width="24" height="24" viewBox="0 0 24 24" fill="none" xmlns="http://www.w3.org/2000/svg">
<path d="M16.3333 22.0001C19.4629 22.0001 22 19.4631 22 16.3334C22 13.2038 19.4629 10.6667 16.3333 10.6667C13.2037 10.6667 10.6666 13.2038 10.6666 16.3334C10.6666 19.4631 13.2037 22.0001 16.3333 22.0001Z" stroke="#292D32" stroke-width="1.4" stroke-miterlimit="10" stroke-linecap="round" stroke-linejoin="round"/>
<path d="M16.3333 13V14" stroke="#292D32" stroke-width="1.4" stroke-miterlimit="10" stroke-linecap="round" stroke-linejoin="round"/>
<path d="M16.3333 18.6665V19.6665" stroke="#292D32" stroke-width="1.4" stroke-miterlimit="10" stroke-linecap="round" stroke-linejoin="round"/>
<path d="M15 14H16.7777C17.422 14 17.9444 14.5223 17.9444 15.1667C17.9444 15.811 17.422 16.3334 16.7777 16.3334H15V14Z" stroke="#292D32" stroke-width="1.4" stroke-miterlimit="10" stroke-linecap="round" stroke-linejoin="round"/>
<path d="M15 16.3333H17.1667C17.811 16.3333 18.3334 16.8556 18.3334 17.4999C18.3334 18.1442 17.811 18.6666 17.1667 18.6666H15V16.3333Z" stroke="#292D32" stroke-width="1.4" stroke-miterlimit="10" stroke-linecap="round" stroke-linejoin="round"/>
<path d="M8.66667 10.6667L17.3333 2" stroke="#292D32" stroke-width="1.4" stroke-miterlimit="10" stroke-linecap="round" stroke-linejoin="round"/>
<path d="M14.3217 11.0347C12.6527 11.6697 11.36 13.0707 10.875 14.807L8.66664 10.6667L2 7.111L17.3333 2L14.3217 11.0347Z" stroke="#292D32" stroke-width="1.4" stroke-miterlimit="10" stroke-linecap="round" stroke-linejoin="round"/>
</svg>
